<svg version="1.1" id="Layer_1" xmlns="http://www.w3.org/2000/svg" xmlns:xlink="http://www.w3.org/1999/xlink" x="0px" y="0px"
	 width="100%" viewBox="0 0 1024 1024" enable-background="new 0 0 1024 1024" xml:space="preserve">
<path fill="#000000" opacity="1.000000" stroke="none" 
	d="
M1.000000,994.468628 
	C7.825339,994.323792 8.121962,994.531921 8.192151,1001.125854 
	C8.273571,1008.774780 8.186222,1016.425598 8.086065,1024.537842 
	C5.693877,1025.000000 3.387755,1025.000000 1.000000,1025.000000 
	C1.000000,1014.979248 1.000000,1004.958252 1.000000,994.468628 
z"/>
<path fill="#000000" opacity="1.000000" stroke="none" 
	d="
M581.101074,154.653809 
	C624.230713,162.461426 664.082764,177.897018 701.620300,199.482605 
	C738.230896,220.535172 770.252136,247.200195 797.378113,279.525696 
	C836.864563,326.581024 863.705383,379.735809 874.590698,440.652985 
	C879.675476,469.108582 882.118286,497.673523 881.200256,526.502869 
	C879.426086,582.217102 865.085144,634.521301 837.811157,683.207703 
	C831.592834,694.307861 831.573547,694.307068 819.403992,691.359070 
	C807.457764,688.465088 795.656616,684.733582 783.134155,685.237122 
	C780.685181,685.335571 779.259888,683.638855 777.762756,682.034058 
	C771.058105,674.846619 764.257751,667.747314 757.623657,660.495667 
	C755.148926,657.790527 752.246826,656.204529 748.718445,655.403870 
	C732.648682,651.757141 716.977112,646.630737 701.040710,642.500305 
	C695.441345,641.048950 690.902954,638.197266 687.137451,634.157837 
	C678.955444,625.380432 669.225098,620.041138 657.373108,617.434204 
	C629.929993,611.398071 602.656128,604.591614 575.319092,598.074768 
	C573.393005,597.615601 571.499573,596.804810 569.757324,598.300293 
	C568.998352,600.758972 570.957458,601.781128 572.066467,603.032532 
	C577.699707,609.388977 583.387329,615.701172 589.208679,621.885071 
	C591.934692,624.780823 592.786865,627.132751 590.117798,630.887939 
	C586.688660,635.712646 583.222839,640.652588 580.803101,646.421753 
	C586.962830,651.945496 594.162537,655.481750 600.907593,659.695129 
	C602.851685,660.909546 603.979858,659.349243 605.366699,658.597046 
	C616.957886,652.309875 612.674744,651.840637 622.434998,660.049255 
	C629.821289,666.261414 636.958801,672.804138 643.454224,679.979797 
	C646.118652,682.923218 648.615845,686.029236 649.135437,690.851196 
	C640.174927,689.739624 632.846313,684.019348 623.721558,683.121704 
	C624.138062,686.957153 625.917114,689.105591 628.528015,690.741882 
	C632.476868,693.216553 636.412476,695.712280 640.359314,698.190308 
	C648.280518,703.163635 652.922668,710.522217 655.101562,719.384033 
	C656.706848,725.912659 659.991699,731.182922 664.513550,736.077820 
	C668.907471,740.834167 672.701416,746.157471 676.598816,751.351929 
	C677.734985,752.866211 679.182007,754.451538 678.719666,757.468445 
	C669.811890,754.464294 661.066650,751.562805 652.354004,748.566528 
	C634.724670,742.503906 617.098694,736.430664 599.507141,730.259827 
	C596.283752,729.129150 593.418823,729.062439 590.516968,731.059998 
	C585.633301,734.421631 580.017456,736.742554 575.790894,740.950378 
	C576.657593,743.717896 578.959534,744.308350 580.671021,745.462952 
	C594.754028,754.963623 608.832947,764.472290 623.036133,773.791138 
	C627.140625,776.484009 627.586609,778.934753 624.723816,783.021790 
	C619.281799,790.791077 614.355225,798.921570 609.224060,806.908142 
	C608.614319,807.857178 607.620361,808.664062 607.967834,810.105835 
	C609.994507,811.332886 611.412170,809.669861 612.837402,808.819092 
	C619.272461,804.977356 625.843567,801.306396 631.955505,796.992737 
	C643.533386,788.821594 656.973267,784.604004 669.538208,778.536316 
	C672.859619,776.932373 674.754639,778.162170 676.481628,781.004089 
	C681.411194,789.116333 686.628113,797.056946 691.433716,805.240234 
	C693.749084,809.182861 696.003784,810.201843 700.165833,807.651855 
	C703.471741,805.626282 706.411926,802.435303 710.637451,802.432739 
	C712.592041,802.431580 719.398987,810.695068 722.124695,815.690002 
	C717.890991,819.637268 712.682251,822.332153 707.705811,825.205566 
	C666.698486,848.883301 623.272827,865.923828 576.296936,873.588684 
	C548.745422,878.084167 521.135559,880.091675 493.293030,878.243835 
	C433.224182,874.257263 377.420105,856.671021 326.009399,825.296326 
	C295.358521,806.590820 268.171906,783.716248 244.209656,756.993469 
	C242.990234,755.633545 241.730972,754.248962 240.819046,752.684204 
	C237.185791,746.449768 240.859604,739.699829 248.010391,739.693176 
	C302.507996,739.642517 357.005707,739.652344 411.503357,739.690674 
	C416.970032,739.694519 420.160492,742.378052 420.220795,746.600586 
	C420.280334,750.772705 417.054810,753.373718 411.591339,753.375000 
	C367.259888,753.385864 322.928467,753.363281 278.597015,753.388855 
	C276.836670,753.389832 274.969299,752.868164 272.952911,754.117126 
	C277.515961,759.535156 281.554810,764.018799 289.957306,763.922546 
	C332.783356,763.431946 375.617767,763.673279 418.449280,763.663452 
	C426.644714,763.661560 430.388641,766.069946 430.208740,771.193787 
	C430.038910,776.031006 426.295013,778.316956 418.482788,778.318848 
	C381.484344,778.327759 344.485931,778.330566 307.487488,778.335449 
	C305.527985,778.335693 303.568481,778.335449 301.426270,778.907166 
	C307.421295,784.034058 311.983490,790.575073 321.689240,789.801758 
	C344.293518,788.000793 366.991302,789.402039 389.647827,789.070862 
	C391.963562,789.036987 394.304657,789.336426 396.601013,789.693298 
	C400.258484,790.261719 402.164825,792.634399 402.256165,796.223389 
	C402.348907,799.867432 400.337372,802.216064 396.830688,802.999939 
	C395.070526,803.393311 393.188812,803.322632 391.361877,803.325073 
	C374.696014,803.347473 358.030029,803.320129 341.364288,803.368042 
	C339.444611,803.373596 337.429962,802.939148 335.052734,804.170654 
	C343.226227,809.186523 350.324951,815.372070 360.689362,813.917786 
	C365.104828,813.298218 369.675903,813.703552 374.174164,813.774414 
	C384.405823,813.935486 387.086731,818.647095 381.977539,827.374023 
	C384.809052,829.808472 391.649323,832.856873 397.334381,834.166931 
	C400.314484,829.399841 401.747589,823.886414 403.908325,818.709045 
	C405.830933,814.102295 408.602844,810.531738 412.869110,807.751892 
	C422.076813,801.752258 430.897797,795.157410 440.128967,789.196167 
	C445.806213,785.529968 449.165070,781.221680 449.529938,774.072205 
	C450.653168,752.063354 464.045471,735.587585 475.570831,718.324768 
	C476.749969,716.558594 478.572937,715.777527 480.537170,715.211853 
	C491.355225,712.096252 500.209290,705.612244 508.855133,698.743896 
	C512.501892,695.846863 511.966736,691.553528 512.583069,687.756470 
	C516.096558,666.110229 519.386841,644.438110 526.197571,623.478882 
	C529.010986,614.820740 534.266846,607.837097 540.240295,601.287903 
	C546.077148,594.888611 552.254700,588.797791 558.024170,582.340454 
	C560.656250,579.394653 563.509094,579.090820 566.981873,579.906982 
	C571.833191,581.047180 576.713318,582.067078 581.589294,583.099609 
	C588.190063,584.497192 588.801025,584.020081 588.803223,577.295044 
	C588.824280,513.131348 588.834961,448.967651 588.843079,384.803955 
	C588.844421,374.137848 588.847412,363.471527 588.780945,352.805756 
	C588.768677,350.839935 589.075989,348.804321 588.209351,346.913910 
	C586.583801,345.901581 585.848816,347.657837 584.681213,347.990234 
	C581.085144,349.014008 577.689636,347.317932 577.850647,343.746094 
	C578.516724,328.963501 572.839050,315.713409 568.313538,302.184174 
	C566.910583,297.989655 566.439880,293.734222 566.488037,289.399780 
	C566.603455,279.013428 570.800964,273.941864 580.968079,271.466949 
	C583.193481,270.925232 585.271057,270.179657 587.230225,268.651062 
	C591.723938,265.144836 599.372192,265.826050 603.141296,269.862061 
	C604.291321,271.093536 605.458618,271.545319 606.993652,271.746735 
	C611.402771,272.325287 613.191406,274.989594 613.154419,279.335815 
	C613.093384,286.500305 613.266968,293.666534 613.258789,300.831940 
	C613.255737,303.496643 613.300720,306.425018 610.520813,307.869049 
	C607.883911,309.238770 605.416199,308.131073 603.332153,306.285553 
	C601.554749,307.369690 602.033264,308.996521 602.031982,310.407196 
	C602.006287,338.904846 602.636475,367.420685 601.813110,395.894653 
	C601.099548,420.571411 602.875854,445.206299 601.966675,469.847992 
	C601.173889,491.338226 601.481018,512.827881 601.371826,534.318054 
	C601.292297,549.968933 601.449402,565.621460 601.287354,581.271057 
	C601.245728,585.293030 602.558777,587.414917 606.637756,588.179077 
	C615.123291,589.768677 623.554016,591.652100 632.003357,593.433472 
	C635.079407,594.082031 636.547180,592.924805 636.078369,589.759888 
	C635.666382,586.978821 635.417908,584.122864 632.611816,582.383057 
	C627.436646,579.174255 625.110901,574.109375 623.730896,568.438904 
	C622.618225,563.867004 621.582275,563.479614 617.684448,566.009888 
	C610.216003,570.858032 606.058716,568.932312 604.662048,559.818054 
	C602.262939,544.162292 603.743958,528.928894 610.453735,514.470459 
	C612.391663,510.294403 612.401550,506.514740 611.525940,502.033661 
	C609.489685,491.612579 609.329834,481.179779 615.392578,471.647583 
	C616.566895,469.801178 617.618042,467.755371 619.520264,466.716248 
	C624.378723,464.062378 624.925964,459.859833 624.826721,454.901947 
	C624.616699,444.408081 624.759827,433.904541 624.921509,423.407471 
	C624.974548,419.964172 623.985840,418.041840 620.187256,418.102814 
	C616.513611,418.161774 614.741455,416.195923 614.919128,412.452148 
	C615.021606,410.291595 614.885376,408.120850 614.927856,405.956085 
	C615.003418,402.108124 615.753540,398.964203 620.833252,399.612396 
	C623.966370,400.012146 624.896484,397.987640 624.772644,395.246704 
	C624.226562,383.170288 626.037354,371.073029 622.866577,359.002289 
	C619.349182,345.612122 625.813660,335.010193 634.787537,325.884949 
	C643.087402,317.445160 653.683105,313.804413 665.299500,312.650391 
	C685.913025,310.602570 706.588806,311.466309 727.203308,311.891449 
	C743.934021,312.236542 755.833008,321.625122 763.348267,336.370728 
	C765.734009,341.051727 767.831909,345.526581 771.707764,349.532379 
	C778.089111,356.127899 780.839111,364.959900 781.253601,374.177887 
	C781.490601,379.449402 782.035889,384.804749 780.127075,390.013977 
	C778.294739,395.014526 775.324951,398.827759 770.104797,400.321777 
	C767.139282,401.170563 766.082764,402.943329 766.183716,405.799774 
	C766.236572,407.297211 766.407959,408.842651 766.131592,410.291229 
	C764.000916,421.460144 769.073303,427.940765 778.414551,433.946838 
	C803.206421,449.887024 827.250488,466.989838 851.610840,483.602600 
	C853.348816,484.787781 854.900818,486.395721 857.488892,486.686798 
	C858.435730,478.231964 856.596741,470.079437 855.417053,461.980591 
	C852.054871,438.897949 846.647644,416.257965 838.744324,394.281372 
	C827.548950,363.150604 811.495850,334.633667 791.455200,308.388733 
	C757.059631,263.345001 714.284790,228.687637 662.920166,204.489487 
	C630.114075,189.034302 595.850830,178.620865 560.043335,173.629898 
	C531.952515,169.714508 503.772491,169.543060 475.454193,172.941727 
	C430.215576,178.371140 387.736237,191.924530 347.832794,213.686630 
	C313.866730,232.210663 284.177338,256.159149 258.486481,285.088379 
	C235.788666,310.647339 216.444473,338.447174 201.999878,369.512421 
	C189.722214,395.917358 181.467194,423.584595 176.329330,452.217224 
	C172.533936,473.368500 170.393021,494.692352 170.518692,516.168457 
	C170.583847,527.300476 171.725510,538.426453 172.391846,549.554443 
	C172.462234,550.729919 172.714767,551.857727 173.984711,553.021484 
	C179.779236,549.627563 184.672287,544.870056 189.816971,540.521606 
	C216.918686,517.614136 243.977158,494.653687 270.842651,471.470612 
	C275.109222,467.788849 277.263092,470.345306 279.942261,472.871643 
	C288.789642,481.214355 297.601288,489.595062 306.463745,497.921692 
	C308.030792,499.393951 309.775848,500.676819 312.135254,502.621185 
	C333.038605,477.858978 353.808014,453.255432 374.991364,428.161560 
	C370.155884,424.126495 365.660828,420.275299 361.059235,416.555908 
	C350.697052,408.180389 340.348602,399.785065 329.850342,391.582428 
	C326.460541,388.933868 325.628265,386.722748 329.396362,383.855530 
	C330.577850,382.956512 331.506897,381.730133 332.577271,380.679871 
	C339.211487,374.170349 337.236725,373.265137 345.990997,380.125580 
	C359.609741,390.798187 373.194366,401.514313 387.239075,412.562531 
	C394.376434,404.030731 401.274048,395.780975 408.176910,387.535553 
	C412.988312,381.788300 417.756531,376.003815 422.635712,370.314606 
	C428.005219,364.053711 428.050964,364.092957 434.238647,370.631042 
	C439.568207,366.677094 443.329773,361.166870 447.533630,356.172882 
	C464.373657,336.167969 481.018677,315.999084 497.802307,295.946472 
	C502.171600,290.726196 507.898865,291.041412 512.667542,296.551697 
	C530.438110,317.085724 548.192932,337.633362 565.972534,358.159515 
	C568.589844,361.181183 571.006958,364.479218 574.052429,367.002747 
	C578.490173,370.679779 579.586548,375.039459 579.456726,380.600983 
	C579.118469,395.092316 579.363281,409.596954 579.340210,424.096222 
	C579.337585,425.717102 579.775635,427.428253 577.870056,430.158081 
	C569.461609,415.002197 562.987000,399.701355 555.298096,384.468781 
	C559.790222,383.496338 562.068604,386.975830 565.284058,386.572174 
	C565.311768,382.879761 513.081604,320.565338 506.337769,316.273071 
	C504.332733,318.612762 504.432587,321.467102 504.349945,324.277069 
	C504.056366,334.258148 504.185547,344.245544 503.882782,354.232086 
	C503.679230,360.945160 507.901367,367.144196 510.496948,373.408905 
	C518.971680,393.863708 527.748779,414.193176 536.404358,434.573090 
	C537.055359,436.106018 537.740295,437.631042 538.272705,439.205963 
	C538.778748,440.702850 539.967957,442.421875 537.892517,443.625275 
	C535.996826,444.724487 534.737610,443.291443 533.606262,442.097778 
	C527.531738,435.688538 521.522583,429.217468 515.452698,422.803802 
	C505.147156,411.914673 494.818817,401.047058 484.479858,390.189636 
	C483.690308,389.360474 482.740692,388.683655 481.448395,387.579712 
	C477.605103,391.213837 474.744690,395.412933 472.107697,399.779572 
	C470.661102,402.175018 472.584656,403.889313 473.590790,405.680054 
	C488.686737,432.547974 503.901794,459.349274 518.914490,486.263489 
	C524.348694,496.005737 529.358582,505.986206 534.474182,515.903320 
	C535.405334,517.708313 537.074524,519.540100 535.555664,521.856750 
	C531.466064,520.856873 476.710114,464.328979 473.952484,457.893524 
	C479.514862,457.944855 483.668030,461.661896 489.901062,462.183807 
	C470.741974,436.904907 452.080139,412.246246 431.788666,387.385956 
	C428.226379,395.072815 427.431854,401.894684 425.536438,408.354584 
	C423.387817,415.677399 421.972961,423.212921 419.951233,430.576965 
	C419.183655,433.372894 419.531006,435.752808 420.633270,438.285950 
	C435.121033,471.580627 451.089844,504.182739 466.704468,536.950684 
	C468.638458,541.009155 470.499359,545.104431 472.294342,549.226135 
	C473.057861,550.979248 474.259766,552.824097 471.703705,555.671753 
	C444.230835,526.544678 416.860992,497.526886 389.366425,468.376831 
	C385.265808,472.097198 384.439728,476.722565 382.498932,480.660034 
	C379.263519,487.224121 376.647461,494.090881 373.637512,500.770203 
	C372.571808,503.135010 372.871368,504.999786 374.132904,507.276154 
	C391.895416,539.327209 409.242645,571.600769 425.522552,604.436646 
	C426.704651,606.820862 427.746674,609.277710 428.770569,611.735535 
	C429.231201,612.841309 429.425690,614.114075 428.212555,614.872375 
	C427.159698,615.530334 425.967682,615.396362 424.920380,614.661682 
	C424.513245,614.375977 424.134644,614.042542 423.774902,613.697632 
	C407.660431,598.249817 391.533478,582.814941 375.474060,567.309998 
	C374.395721,566.268921 372.637299,565.376587 373.210724,562.680969 
	C378.283173,564.055603 383.293427,565.413391 388.303680,566.771179 
	C388.570557,566.436768 388.837433,566.102356 389.104309,565.767944 
	C375.336121,549.589905 361.062256,533.868774 346.294434,519.144226 
	C299.681244,554.427795 251.529068,586.765503 205.110413,621.859314 
	C207.041901,623.210449 208.744568,622.658936 210.331802,622.662170 
	C236.830414,622.715698 263.329102,622.732544 289.827789,622.726074 
	C292.522858,622.725403 295.153961,622.802795 297.557922,624.243469 
	C300.287170,625.879089 301.571075,628.393372 301.008026,631.386108 
	C300.421661,634.502625 298.568298,636.904236 295.067413,637.268066 
	C293.416718,637.439636 291.738251,637.366333 290.072388,637.367065 
	C260.240356,637.380188 230.408295,637.382507 200.576263,637.410461 
	C198.962967,637.411987 197.246964,637.028870 195.518570,638.307251 
	C195.771744,642.548157 198.062256,646.073425 200.038239,649.598389 
	C201.148956,651.579895 203.692276,650.729675 205.623718,650.780823 
	C264.606720,652.343262 323.602600,651.396790 382.592377,651.678284 
	C385.071136,651.690125 387.548706,651.473633 390.001862,652.369202 
	C393.840759,653.770569 395.811432,656.404419 395.150208,660.389832 
	C394.507080,664.266113 392.148376,666.532654 387.873627,666.413513 
	C364.553741,665.763672 341.242920,666.941284 317.911438,666.596313 
	C282.777832,666.076843 247.631317,666.425659 212.490295,666.428101 
	C211.210709,666.428223 209.788330,666.076843 208.341019,667.795105 
	C210.064285,672.484924 212.556503,677.099609 215.666306,681.353149 
	C217.160843,683.397400 219.668213,682.634705 221.765793,682.636414 
	C259.597504,682.667542 297.429260,682.656677 335.260986,682.656860 
	C336.927490,682.656860 338.597961,682.606445 340.259796,682.699829 
	C345.237274,682.979309 348.380798,686.044739 348.270874,690.435425 
	C348.168701,694.515625 345.068817,697.297791 340.081970,697.312500 
	C315.749878,697.384277 291.417480,697.360413 267.085205,697.367126 
	C251.752548,697.371399 236.419861,697.386780 221.087265,697.354919 
	C218.518082,697.349609 216.451904,697.784424 214.401886,699.812256 
	C208.750595,705.402527 202.161392,703.959595 198.380203,696.912842 
	C184.102844,670.305359 171.167389,643.147217 162.639297,614.043884 
	C150.861710,573.851379 146.334122,532.752625 148.995453,491.116974 
	C152.208572,440.848816 163.492737,392.406677 187.261368,347.535797 
	C217.220642,290.978119 258.324738,244.256546 311.895630,208.939178 
	C353.138672,181.749146 398.292511,163.951508 446.812012,154.892578 
	C474.689301,149.687698 502.892334,147.537933 531.236267,148.865402 
	C547.812561,149.641754 564.345459,151.394287 581.101074,154.653809 
M795.397827,468.149689 
	C786.220032,461.797821 777.405823,454.884583 767.578186,449.179810 
	C765.257385,455.814362 765.825989,460.445374 769.118347,462.453217 
	C777.776978,467.733673 781.369263,475.583527 781.353088,485.480316 
	C781.311951,510.629852 781.112671,535.782837 781.461304,560.927734 
	C781.627380,572.907104 776.629578,580.956909 765.856384,585.695190 
	C763.647888,586.666504 761.885254,587.930298 761.038025,590.392395 
	C756.800293,602.707886 747.571838,607.376343 735.146057,607.277039 
	C719.990601,607.156006 704.833862,607.171570 689.677673,607.184509 
	C687.777954,607.186096 685.646790,606.446899 683.733032,608.728027 
	C686.739746,612.623657 690.788086,615.543274 694.222900,619.052734 
	C697.099915,621.992249 700.346985,623.084351 704.476807,623.070251 
	C748.112488,622.921143 791.748779,622.874146 835.384521,622.963562 
	C839.608154,622.972229 841.529480,621.512756 842.799866,617.492065 
	C852.670776,586.251160 858.605469,554.420654 859.013367,521.544067 
	C859.101501,514.442139 856.724731,510.275146 851.099609,506.492523 
	C832.593689,494.048126 814.345032,481.221069 795.397827,468.149689 
M291.170105,525.661621 
	C292.826782,524.023621 294.502533,522.404358 296.133148,520.740845 
	C297.167419,519.685608 297.695312,518.405273 296.488281,517.219727 
	C290.131195,510.975891 283.718506,504.788727 277.141632,498.403778 
	C274.709778,502.278229 272.116791,504.802704 268.998901,507.234955 
	C268.113220,506.047241 270.096588,504.383453 268.043945,503.569214 
	C266.834991,503.672882 266.008484,504.788177 264.990875,505.594452 
	C253.765167,514.488831 242.499268,523.332825 231.310028,532.272827 
	C214.527969,545.681274 197.822128,559.185181 181.026154,572.576111 
	C177.768784,575.173096 176.661179,578.036865 177.921066,582.165405 
	C179.128433,586.121887 179.536758,590.314575 180.550369,594.339478 
	C182.390457,601.646301 183.873474,609.078613 187.016403,616.628113 
	C222.064468,586.292358 256.761658,556.682495 291.170105,525.661621 
M702.196472,326.175201 
	C688.299500,324.811005 674.474792,324.803802 660.590332,328.031097 
	C669.771240,334.830048 675.658386,344.076996 682.324463,352.499207 
	C689.182739,361.164398 690.995239,371.982208 691.786499,383.091705 
	C694.429199,382.847900 696.515686,382.655396 698.673767,382.456299 
	C699.505188,373.305481 697.121155,365.277130 693.797485,357.407623 
	C693.189087,355.967010 692.020386,354.299377 693.596252,352.789398 
	C694.931519,351.509979 696.636292,351.779358 698.329285,352.061188 
	C702.181946,352.702545 704.329163,355.208344 706.036743,358.483307 
	C709.055542,364.272980 709.122498,370.663239 710.063721,376.877197 
	C710.351746,378.778778 710.533997,380.590485 713.075867,380.648132 
	C724.563049,380.908569 736.048950,381.240601 747.537292,381.417450 
	C750.873474,381.468811 752.358887,379.573853 751.795166,376.221008 
	C751.409973,373.930054 751.351624,371.511963 750.544312,369.378845 
	C748.779663,364.716095 746.600769,360.211456 744.650940,355.616882 
	C743.560120,353.046661 742.488159,350.725037 746.731445,349.570282 
	C749.956238,348.692719 751.214050,344.066040 749.684326,341.004944 
	C744.156982,329.944275 728.076477,322.322510 716.464233,326.464111 
	C711.498230,328.235199 707.497986,327.121796 702.196472,326.175201 
M683.157166,449.382629 
	C681.502747,449.238007 679.830200,449.202240 678.196777,448.931030 
	C668.053772,447.246887 668.135742,444.995483 668.285278,457.093628 
	C668.387085,465.332092 666.976196,464.889374 675.870300,467.874207 
	C686.149292,471.323700 693.975464,477.666229 697.363037,488.427521 
	C698.336487,491.519775 700.557068,492.562012 703.431030,492.570892 
	C716.409973,492.610901 729.389099,492.571960 742.368164,492.578979 
	C745.206970,492.580536 747.116394,491.599243 747.677185,488.504639 
	C748.761597,482.519714 751.403442,477.181519 754.851196,472.583527 
	C750.326599,464.960114 754.204102,456.636627 752.148254,449.113678 
	C744.182495,447.794220 742.287109,449.357880 742.264771,457.082733 
	C742.261902,458.081970 742.261963,459.081268 742.269653,460.080475 
	C742.328613,467.700623 742.041992,467.826904 734.474060,466.841522 
	C731.080078,466.399597 729.243286,465.219696 729.663269,461.510986 
	C729.867920,459.702972 729.537903,457.837158 729.710083,456.022186 
	C730.108643,451.821808 728.698486,449.812195 724.113525,450.299591 
	C720.654297,450.667267 717.126404,450.394714 713.629028,450.396301 
	C702.550598,450.401276 702.448669,450.396332 702.122437,461.555328 
	C702.026306,464.841492 700.904419,466.271393 697.570251,466.697113 
	C690.605835,467.586334 689.518555,466.874817 688.996338,459.778473 
	C688.874146,458.118988 688.747803,456.442291 688.849609,454.787445 
	C689.065002,451.285828 687.634583,449.398254 683.157166,449.382629 
M670.766602,432.894592 
	C676.827393,433.809845 682.861389,435.005219 688.954041,435.587677 
	C707.047974,437.317444 725.121582,436.952332 743.173950,434.695312 
	C750.952698,433.722778 752.249695,432.658051 752.550293,424.943481 
	C752.621033,423.126770 752.468323,421.286713 752.248413,419.478088 
	C752.085876,418.141052 751.636108,416.575104 750.054382,416.507111 
	C743.183838,416.211578 742.613159,411.615173 743.019226,406.395996 
	C743.328247,402.423676 741.551880,401.225830 737.720459,401.298706 
	C727.735352,401.488678 717.743896,401.322815 707.754944,401.335754 
	C700.559387,401.345062 700.464966,401.451080 700.370239,408.530182 
	C700.338989,410.863190 700.778015,413.698853 698.271301,414.758514 
	C693.235535,416.887177 687.839050,417.245422 682.691345,415.242340 
	C678.352295,413.553955 679.583862,409.342438 679.737427,406.053772 
	C679.968811,401.096771 676.898804,401.329071 673.567566,401.335785 
	C670.278625,401.342438 667.278564,400.981506 667.269775,405.956085 
	C667.255920,413.774780 668.480774,421.568665 667.639343,429.399475 
	C667.462158,431.047424 668.229431,432.310242 670.766602,432.894592 
M703.847107,570.781494 
	C716.330139,570.789185 728.815918,570.648804 741.294617,570.886169 
	C745.572632,570.967407 747.564636,569.423157 747.456055,565.236938 
	C747.322388,560.083252 747.047607,554.932983 746.926697,549.779114 
	C746.861145,546.984070 745.324097,546.129944 742.791687,545.944153 
	C729.492981,544.969177 716.178162,545.635254 702.872375,545.469482 
	C699.529297,545.427856 698.227417,547.230042 698.349182,550.562012 
	C698.537292,555.711487 698.604187,560.878052 698.399475,566.024597 
	C698.262878,569.457886 699.470398,571.063477 703.847107,570.781494 
M758.702820,638.505188 
	C756.385986,638.505188 754.069153,638.505188 751.752319,638.505188 
	C757.607361,638.599060 761.621582,641.823669 765.274048,645.614136 
	C768.240662,648.692810 771.612793,649.821350 775.952393,649.754517 
	C791.605835,649.513428 807.265259,649.658020 822.922424,649.652161 
	C829.984253,649.649536 833.228394,646.273560 833.426147,638.488342 
	C808.792908,638.488342 784.164673,638.488342 758.702820,638.505188 
M667.565796,568.709412 
	C670.090515,572.499451 673.944031,570.215698 677.164978,570.755676 
	C682.016541,571.569153 684.018738,569.654236 683.805054,564.443726 
	C683.430298,555.303284 683.206055,546.099609 683.867493,536.991272 
	C684.429871,529.246460 682.424805,524.614136 674.353394,522.493103 
	C668.524353,520.961243 667.387634,520.955444 667.369995,526.897217 
	C667.329407,540.547363 667.403198,554.197754 667.565796,568.709412 
M640.331665,538.499878 
	C639.774414,546.750000 641.540894,555.104492 639.171753,563.280273 
	C638.696533,564.920349 639.999146,565.776489 641.212463,566.283142 
	C643.042175,567.047180 644.960144,567.636169 646.883850,568.131714 
	C651.677429,569.366638 653.467529,568.129150 653.608398,563.208618 
	C653.760681,557.890930 653.634277,552.565186 653.623962,547.242920 
	C653.604248,537.097412 653.617737,526.951538 653.530457,516.806580 
	C653.510742,514.519592 653.666138,511.841156 651.185242,510.653809 
	C647.831360,509.048584 640.404053,514.201599 640.364502,518.040344 
	C640.297607,524.526306 640.338135,531.013367 640.331665,538.499878 
M560.751404,800.227661 
	C550.669067,813.949524 540.586670,827.671448 530.504333,841.393311 
	C530.921448,841.751160 531.338623,842.109009 531.755737,842.466858 
	C550.464478,825.468811 569.172058,808.469543 586.858276,790.193970 
	C580.804321,791.487854 574.961853,793.248047 569.060974,794.783386 
	C565.877258,795.611694 563.169983,796.988708 560.751404,800.227661 
M486.152069,786.533386 
	C485.354828,791.525208 482.080963,795.880432 482.074554,801.190979 
	C482.712585,801.155762 483.159302,801.269592 483.331635,801.101746 
	C492.959320,791.723083 501.751312,781.579102 510.482697,771.380493 
	C512.437195,769.097656 511.173859,767.279907 509.360687,765.896729 
	C506.465118,763.687866 503.427521,761.655457 500.371826,759.668579 
	C496.205200,756.959351 495.279236,757.337341 493.792725,762.062988 
	C491.308197,769.961609 488.818878,777.858765 486.152069,786.533386 
M643.543640,493.519104 
	C649.486389,491.540100 650.889648,486.182159 652.474854,481.132416 
	C653.267883,478.606262 651.388000,477.468018 649.079590,477.387207 
	C645.750610,477.270721 642.415466,477.318939 639.082947,477.319061 
	C630.112427,477.319336 624.556580,483.682343 625.372070,493.090515 
	C625.801270,493.249084 626.259460,493.562866 626.719910,493.566284 
	C632.051025,493.605591 637.382629,493.597992 643.543640,493.519104 
M640.038452,405.662323 
	C639.047791,408.955109 640.015991,412.267029 639.994141,415.568115 
	C639.939270,423.838135 644.500061,427.927063 653.439514,427.677216 
	C653.439514,416.974457 653.439514,406.264343 653.439514,395.098022 
	C647.782776,397.210663 643.559692,400.425812 640.038452,405.662323 
M671.421509,506.061127 
	C673.897461,507.397156 676.343872,508.792145 678.858398,510.051056 
	C680.983826,511.115082 682.642639,510.848602 683.465027,508.233398 
	C686.718689,497.887024 682.282593,487.200226 672.725281,482.504303 
	C668.958862,480.653687 667.573303,481.386810 667.407837,485.640961 
	C667.240601,489.940247 667.513367,494.258423 667.297241,498.553406 
	C667.138977,501.697296 668.094482,504.040863 671.421509,506.061127 
M698.559326,507.999481 
	C697.703979,512.613831 700.850952,512.873413 704.018311,512.877625 
	C716.982849,512.894653 729.947693,512.862000 742.912048,512.791321 
	C745.032410,512.779785 747.489197,513.012390 747.554688,509.732208 
	C747.622498,506.338226 745.624329,505.717804 742.706360,505.713013 
	C729.745178,505.691589 716.784180,505.521820 703.822998,505.427246 
	C701.955261,505.413605 700.173828,505.745056 698.559326,507.999481 
M739.302979,532.631531 
	C740.302307,532.629150 741.302185,532.605164 742.300903,532.628601 
	C744.943237,532.690552 746.878723,532.108643 746.793640,528.801025 
	C746.705750,525.382568 744.473694,525.825989 742.260925,525.912231 
	C739.432861,526.022461 736.599426,526.123657 733.771057,526.073792 
	C723.787231,525.897827 713.805298,525.590637 703.820984,525.480286 
	C700.995605,525.449097 698.245361,526.230103 698.488220,529.899719 
	C698.727600,533.516846 701.730225,532.584229 703.871094,532.597656 
	C715.363159,532.669739 726.855957,532.630432 739.302979,532.631531 
M554.603577,699.087341 
	C560.492554,693.671021 567.476196,689.465088 572.630737,683.693542 
	C572.121704,682.084167 571.391907,681.704651 570.561462,681.533203 
	C559.700500,679.290710 555.601929,681.164795 550.457886,690.730469 
	C549.672485,692.190979 548.855835,693.647522 548.229370,695.177917 
	C546.776672,698.726379 544.093567,701.842407 544.001526,706.421936 
	C548.356323,705.004028 550.934814,701.867188 554.603577,699.087341 
M641.404846,462.031189 
	C652.069824,464.147278 653.851685,462.770691 653.816406,452.414795 
	C653.810730,450.758453 653.755188,449.101990 653.702087,447.446259 
	C653.656616,446.027588 653.187561,444.719238 651.786987,444.235962 
	C648.133301,442.975311 644.715820,440.704651 640.134155,441.181305 
	C639.446777,448.113434 639.540955,454.794312 641.404846,462.031189 
M588.739319,301.516663 
	C588.926514,294.134857 589.934509,286.430664 581.078186,282.424988 
	C578.042175,285.151245 576.899963,288.314270 577.784973,292.570129 
	C579.389099,300.283356 582.202576,307.530212 585.345276,314.690186 
	C585.993652,316.167358 586.822632,317.455902 588.737244,318.566986 
	C588.737244,312.806671 588.737244,307.657379 588.739319,301.516663 
M767.649048,550.484009 
	C767.649170,544.655518 767.729980,538.825317 767.603882,532.999573 
	C767.562073,531.070740 768.552795,528.071106 765.127136,528.090088 
	C762.067810,528.106995 762.279419,530.801636 762.241882,532.958130 
	C762.056885,543.609558 761.880798,554.261292 761.774780,564.913696 
	C761.764282,565.973022 761.640625,567.320984 763.304382,567.928040 
	C766.395142,566.720276 767.604614,564.221069 767.632874,560.967041 
	C767.660400,557.803284 767.644348,554.639099 767.649048,550.484009 
M816.117432,665.250916 
	C805.969299,665.250916 795.821228,665.250916 785.201538,665.250916 
	C786.603333,667.892639 788.101868,668.448975 790.104919,668.715942 
	C797.338928,669.679993 804.568787,670.735107 811.744934,672.055969 
	C818.790710,673.352600 819.401550,673.093567 821.457458,665.490784 
	C819.937317,665.413513 818.460083,665.338440 816.117432,665.250916 
M762.388916,490.273071 
	C762.388916,497.470459 762.388916,504.667816 762.388916,512.049622 
	C766.313538,511.877106 767.678284,510.126923 767.659485,506.962708 
	C767.622314,500.680634 767.666504,494.398041 767.625549,488.116028 
	C767.616211,486.675354 767.786255,485.013367 765.636536,484.679565 
	C763.657043,485.641479 763.167175,487.614044 762.388916,490.273071 
M618.758972,531.570496 
	C616.169556,537.577393 614.036682,543.625793 616.488464,550.387451 
	C624.428467,547.064148 625.819153,540.873840 621.764648,529.218140 
	C620.307495,528.934448 619.760010,530.026184 618.758972,531.570496 
M640.397400,375.310181 
	C640.245361,377.892609 638.985840,381.173553 641.248291,382.775085 
	C643.803162,384.583618 645.781372,381.157990 648.111145,380.274750 
	C649.026367,379.927826 649.841797,379.325562 650.723389,378.880646 
	C652.955872,377.754089 654.847046,376.343628 653.441467,373.522797 
	C652.110596,370.851929 649.830078,369.614441 646.887085,370.723175 
	C644.598999,371.585144 642.255310,372.505585 640.397400,375.310181 
M678.039978,375.188385 
	C676.845154,369.356873 674.416992,364.236511 669.397522,359.285706 
	C669.350281,366.224915 671.308533,371.547272 672.719543,376.942963 
	C673.143433,378.563782 672.619202,381.612549 675.680054,381.243011 
	C678.813171,380.864655 678.926514,378.439148 678.039978,375.188385 
M739.413635,590.805786 
	C740.145813,590.617676 741.150330,590.914185 741.402344,589.408875 
	C730.976440,589.408875 720.632874,589.408875 710.289368,589.408875 
	C719.708618,591.187317 729.193237,590.387207 739.413635,590.805786 
M763.942505,369.879974 
	C765.083130,373.920197 763.289368,378.447540 765.503296,382.891968 
	C769.126892,377.974518 768.011780,371.075256 763.575500,367.746552 
	C763.638123,368.294312 763.692200,368.768005 763.942505,369.879974 
z"/>
<path fill="#000000" opacity="1.000000" stroke="none" 
	d="
M420.961914,712.888428 
	C425.265900,712.924744 429.087311,712.330811 432.863281,713.546570 
	C436.665802,714.770813 438.990265,717.358704 438.878906,721.184570 
	C438.762024,725.199707 436.338715,728.032715 432.164917,728.732483 
	C429.880951,729.115479 427.528473,729.227295 425.206787,729.228271 
	C363.228302,729.253845 301.249817,729.255127 239.271347,729.231628 
	C236.122101,729.230408 232.931580,729.515930 229.852997,728.468445 
	C225.874298,727.114807 223.800903,724.375549 224.220779,720.165466 
	C224.620453,716.158081 226.942352,714.078247 231.068390,713.580200 
	C236.388580,712.937927 241.703842,712.976013 247.031601,712.973694 
	C304.843994,712.948181 362.656403,712.923401 420.961914,712.888428 
z"/>
<path fill="#000000" opacity="1.000000" stroke="none" 
	d="
M708.080444,711.246277 
	C698.100525,705.327759 688.468994,699.585327 679.165833,694.038635 
	C679.370300,691.588257 680.651794,690.928650 681.699768,690.210693 
	C693.216675,682.320251 704.837341,674.578796 716.265808,666.562927 
	C720.140869,663.844971 722.538757,664.329712 725.240234,668.207520 
	C734.357605,681.294861 743.755798,694.186279 753.008606,707.179688 
	C753.940369,708.488159 755.239868,709.678040 755.201660,711.786621 
	C751.402283,713.309570 747.357788,712.643005 743.476929,712.799683 
	C734.177490,713.175171 724.860657,713.105164 715.552124,713.278931 
	C712.973694,713.327087 710.613159,712.771362 708.080444,711.246277 
z"/>
<path fill="#000000" opacity="1.000000" stroke="none" 
	d="
M424.999878,697.388794 
	C410.358154,697.382690 396.216370,697.399841 382.074738,697.358704 
	C376.275024,697.341858 373.042969,694.857544 372.889252,690.472351 
	C372.732269,685.994751 376.357483,682.724182 382.027893,682.710449 
	C407.149872,682.649780 432.272125,682.684082 457.394135,682.749695 
	C459.019684,682.753906 460.669983,683.210022 462.263550,683.628357 
	C466.560394,684.756348 468.111176,687.838379 467.548950,691.952515 
	C467.004211,695.938232 464.275330,697.414001 460.438171,697.401123 
	C448.792206,697.362061 437.146027,697.388000 424.999878,697.388794 
z"/>
<path fill="#000000" opacity="1.000000" stroke="none" 
	d="
M712.786743,747.211426 
	C708.949402,742.860291 704.633423,739.370117 701.402527,733.773865 
	C707.422424,730.833679 713.066223,727.859680 719.187744,725.901489 
	C720.942688,725.340088 722.419434,726.599731 723.703979,727.586670 
	C731.194885,733.341736 738.622192,739.179443 746.810547,745.566101 
	C738.911560,748.781982 731.772522,751.696106 724.626648,754.593567 
	C722.052124,755.637451 720.139954,754.440002 718.388611,752.699646 
	C716.618835,750.941101 714.823853,749.207947 712.786743,747.211426 
z"/>
<path fill="#000000" opacity="1.000000" stroke="none" 
	d="
M294.372559,435.425659 
	C295.642670,436.517456 296.619904,437.445343 297.767731,438.048859 
	C303.984283,441.317535 304.763458,442.959290 302.984222,449.491272 
	C301.825287,453.745972 299.739746,454.647675 296.104187,452.315155 
	C290.616028,448.793945 286.135590,444.447998 285.423828,437.512482 
	C284.286377,426.428925 280.631714,424.945679 268.575195,426.100739 
	C276.443481,417.789001 284.511230,410.629333 294.300873,404.543457 
	C288.153320,414.968597 290.521759,425.049622 294.372559,435.425659 
z"/>
<path fill="#000000" opacity="1.000000" stroke="none" 
	d="
M658.757324,645.320190 
	C652.885254,642.236328 647.359680,639.295715 640.793884,635.801514 
	C647.094910,631.271912 653.186096,628.952271 659.361572,626.862854 
	C660.089905,626.616333 661.336243,627.238708 662.080811,627.803406 
	C669.888611,633.725281 677.650024,639.708740 685.394958,645.712952 
	C685.848145,646.064331 686.049438,646.740723 686.832214,648.031189 
	C677.036987,648.077759 667.668030,652.372253 658.757324,645.320190 
z"/>
<path fill="#000000" opacity="1.000000" stroke="none" 
	d="
M755.647827,689.320312 
	C765.698608,696.003784 775.166565,702.848877 783.915588,710.612793 
	C783.801086,711.098999 783.686584,711.585144 783.572083,712.071350 
	C777.225342,712.071350 770.877808,712.116150 764.533142,712.001831 
	C763.900452,711.990479 763.123962,711.118835 762.686401,710.464478 
	C756.800598,701.662415 750.963135,692.828125 744.691528,683.364746 
	C749.435486,684.115417 752.142151,687.101379 755.647827,689.320312 
z"/>
<path fill="#000000" opacity="1.000000" stroke="none" 
	d="
M331.485962,441.575562 
	C332.264130,444.581329 333.851807,447.095367 332.883820,450.045868 
	C322.034851,446.632721 319.256256,438.083374 326.148315,429.077423 
	C329.276978,432.599976 329.675629,437.197479 331.485962,441.575562 
z"/>
<path fill="#000000" opacity="1.000000" stroke="none" 
	d="
M713.134705,353.279907 
	C719.447754,350.630646 725.766479,351.134064 731.807007,352.437012 
	C735.982483,353.337616 736.865479,357.622681 736.143494,361.368347 
	C735.367432,365.394104 731.921875,363.971100 729.231140,363.788605 
	C726.758789,363.620972 724.256165,363.242950 721.810852,363.457886 
	C714.727539,364.080505 712.372253,361.995819 713.134705,353.279907 
z"/>
</svg>